<!-- icon666.com - MILLIONS OF FREE VECTOR ICONS --><svg version="1.1" id="Capa_1" xmlns="http://www.w3.org/2000/svg" xmlns:xlink="http://www.w3.org/1999/xlink" x="0px" y="0px" viewBox="0 0 208.213 208.213" style="enable-background:new 0 0 208.213 208.213;" xml:space="preserve"><g><g><path d="M124.587,13.653h-40.96c-1.884,0-3.413,1.529-3.413,3.413v45.049c0,1.884,1.529,3.413,3.413,3.413S87.04,64,87.04,62.116 V20.48h34.133v30.986c0,1.884,1.529,3.413,3.413,3.413c1.884,0,3.413-1.529,3.413-3.413v-34.4 C128,15.183,126.471,13.653,124.587,13.653z"></path></g></g><g><g><path d="M133.514,48.51c-0.831-0.647-1.913-0.877-2.929-0.621L75.972,61.542c-1.519,0.379-2.586,1.744-2.586,3.311V99.61 c0,1.884,1.529,3.413,3.413,3.413c1.884,0,3.413-1.529,3.413-3.413v-32.09L128,55.572V85.63c0,1.884,1.529,3.413,3.413,3.413 c1.884,0,3.413-1.529,3.413-3.413V51.2C134.827,50.149,134.342,49.157,133.514,48.51z"></path></g></g><g><g><path d="M140.341,82.644c-0.831-0.647-1.911-0.877-2.929-0.621L69.146,99.089c-1.519,0.379-2.586,1.744-2.586,3.311v34.925 c0,1.884,1.529,3.413,3.413,3.413c1.884,0,3.413-1.529,3.413-3.415v-32.259l61.44-15.36v30.537c0,1.884,1.529,3.413,3.413,3.413 c1.884,0,3.413-1.529,3.413-3.413V85.333C141.653,84.282,141.169,83.29,140.341,82.644z"></path></g></g><g><g><path d="M147.168,116.777c-0.829-0.647-1.913-0.875-2.929-0.621l-81.92,20.48c-1.519,0.379-2.586,1.744-2.586,3.311v31.985 c0,1.884,1.529,3.413,3.413,3.413s3.413-1.527,3.413-3.413v-29.321l75.093-18.773v33.9c0,1.884,1.529,3.413,3.413,3.413 s3.413-1.529,3.413-3.413v-38.27C148.48,118.415,147.995,117.424,147.168,116.777z"></path></g></g><g><g><path d="M154.083,154.395c-0.773-0.648-1.795-0.918-2.79-0.742L55.719,170.72c-1.628,0.292-2.813,1.707-2.813,3.36v20.48 c0,1.884,1.529,3.413,3.413,3.413h95.573c1.884,0,3.413-1.529,3.412-3.413v-37.547 C155.305,156.003,154.858,155.044,154.083,154.395z M148.48,191.147H59.733v-14.208l88.747-15.848V191.147z"></path></g></g><g><g><path d="M97.28,27.307c-1.884,0-3.413,1.529-3.413,3.413v13.653c0,1.884,1.529,3.413,3.413,3.413s3.413-1.529,3.413-3.413V30.72 C100.693,28.836,99.164,27.307,97.28,27.307z"></path></g></g><g><g><path d="M110.933,27.307c-1.884,0-3.413,1.529-3.413,3.413v13.653c0,1.884,1.529,3.413,3.413,3.413s3.413-1.529,3.413-3.413V30.72 C114.347,28.836,112.817,27.307,110.933,27.307z"></path></g></g><g><g><path d="M114.347,0h-20.48c-1.884,0-3.413,1.529-3.413,3.413v13.653c0,1.884,1.529,3.413,3.413,3.413h20.48 c1.884,0,3.413-1.529,3.413-3.413V3.413C117.76,1.529,116.231,0,114.347,0z M110.933,13.653H97.28V6.827h13.653V13.653z"></path></g></g><g><g><path d="M199.68,191.147H8.533c-1.884,0-3.413,1.529-3.413,3.413c0,1.884,1.529,3.413,3.413,3.413H199.68 c1.884,0,3.413-1.529,3.413-3.413C203.093,192.676,201.564,191.147,199.68,191.147z"></path></g></g><g><g><path d="M18.773,191.147c-1.884,0-3.413,1.529-3.413,3.413v10.24c0,1.884,1.529,3.413,3.413,3.413s3.413-1.529,3.413-3.413v-10.24 C22.187,192.676,20.658,191.147,18.773,191.147z"></path></g></g><g><g><path d="M35.84,191.147c-1.884,0-3.413,1.529-3.413,3.413v10.24c0,1.884,1.529,3.413,3.413,3.413s3.413-1.529,3.413-3.413v-10.24 C39.253,192.676,37.724,191.147,35.84,191.147z"></path></g></g><g><g><path d="M52.907,191.147c-1.884,0-3.413,1.529-3.413,3.413v10.24c0,1.884,1.529,3.413,3.413,3.413s3.413-1.529,3.413-3.413v-10.24 C56.32,192.676,54.791,191.147,52.907,191.147z"></path></g></g><g><g><path d="M69.973,191.147c-1.884,0-3.413,1.529-3.413,3.413v10.24c0,1.884,1.529,3.413,3.413,3.413 c1.884,0,3.413-1.529,3.413-3.413v-10.24C73.387,192.676,71.858,191.147,69.973,191.147z"></path></g></g><g><g><path d="M87.04,191.147c-1.884,0-3.413,1.529-3.413,3.413v10.24c0,1.884,1.529,3.413,3.413,3.413s3.413-1.529,3.413-3.413v-10.24 C90.453,192.676,88.924,191.147,87.04,191.147z"></path></g></g><g><g><path d="M104.107,191.147c-1.884,0-3.413,1.529-3.413,3.413v10.24c0,1.884,1.529,3.413,3.413,3.413s3.413-1.529,3.413-3.413 v-10.24C107.52,192.676,105.991,191.147,104.107,191.147z"></path></g></g><g><g><path d="M121.173,191.147c-1.884,0-3.413,1.529-3.413,3.413v10.24c0,1.884,1.529,3.413,3.413,3.413 c1.884,0,3.413-1.529,3.413-3.413v-10.24C124.587,192.676,123.058,191.147,121.173,191.147z"></path></g></g><g><g><path d="M138.24,191.147c-1.884,0-3.413,1.529-3.413,3.413v10.24c0,1.884,1.529,3.413,3.413,3.413 c1.884,0,3.413-1.529,3.413-3.413v-10.24C141.653,192.676,140.124,191.147,138.24,191.147z"></path></g></g><g><g><path d="M155.307,191.147c-1.884,0-3.413,1.529-3.413,3.413v10.24c0,1.884,1.529,3.413,3.413,3.413s3.413-1.529,3.413-3.413 v-10.24C158.72,192.676,157.191,191.147,155.307,191.147z"></path></g></g><g><g><path d="M172.373,191.147c-1.884,0-3.413,1.529-3.413,3.413v10.24c0,1.884,1.529,3.413,3.413,3.413s3.413-1.529,3.413-3.413 v-10.24C175.787,192.676,174.257,191.147,172.373,191.147z"></path></g></g><g><g><path d="M189.44,191.147c-1.884,0-3.413,1.529-3.413,3.413v10.24c0,1.884,1.529,3.413,3.413,3.413 c1.884,0,3.413-1.529,3.413-3.413v-10.24C192.853,192.676,191.324,191.147,189.44,191.147z"></path></g></g></svg>