<!-- icon666.com - MILLIONS OF FREE VECTOR ICONS --><svg version="1.1" id="Capa_1" xmlns="http://www.w3.org/2000/svg" xmlns:xlink="http://www.w3.org/1999/xlink" x="0px" y="0px" viewBox="0 0 45.705 45.705" style="enable-background:new 0 0 45.705 45.705;" xml:space="preserve"><g><g><path d="M14.057,6.845c0.026-0.151,0.141-0.27,0.29-0.301c0.149-0.031,0.302,0.033,0.386,0.16l4.589,7.038l1.184-1.682 l-5.881-8.667c-0.192-0.283-0.51-0.454-0.853-0.457c-0.341-0.003-0.663,0.162-0.859,0.442L0.19,21.458 c-0.164,0.232-0.225,0.521-0.171,0.799c0.055,0.278,0.22,0.523,0.459,0.676L9,28.411l1.838-2.613L14.057,6.845z"></path><path d="M45.467,33.439L28.688,8.7c-0.244-0.36-0.65-0.575-1.085-0.575c-0.427,0-0.826,0.208-1.072,0.556L9.565,32.778 c-0.217,0.309-0.298,0.696-0.226,1.065c0.072,0.37,0.292,0.696,0.608,0.899l12.142,7.806c0.225,0.146,0.485,0.221,0.748,0.221 c0.146,0,0.293-0.022,0.437-0.069l21.488-7.163c0.41-0.137,0.732-0.458,0.871-0.868C45.771,34.257,45.709,33.798,45.467,33.439z M41.661,33.317c-0.075,0.219-0.246,0.39-0.464,0.466l-16.938,5.873c-0.164,0.056-0.346,0.021-0.479-0.091 c-0.133-0.111-0.197-0.286-0.167-0.458l4.371-25.729c0.034-0.2,0.187-0.358,0.385-0.399s0.401,0.043,0.512,0.213l12.699,19.475 C41.706,32.859,41.735,33.099,41.661,33.317z"></path></g></g></svg>